<?xml version="1.0" encoding="UTF-8" standalone="no"?>
<svg width="22px" height="22px" viewBox="0 0 22 22" version="1.1" xmlns="http://www.w3.org/2000/svg" xmlns:xlink="http://www.w3.org/1999/xlink" xmlns:sketch="http://www.bohemiancoding.com/sketch/ns">
    <!-- Generator: Sketch 3.3.3 (12081) - http://www.bohemiancoding.com/sketch -->
    <title>500px</title>
    <desc>Created with Sketch.</desc>
    <defs>
        <circle id="path-1" cx="11" cy="11" r="11"></circle>
    </defs>
    <g id="Page-1" stroke="none" stroke-width="1" fill="none" fill-rule="evenodd" sketch:type="MSPage">
        <g id="assets" sketch:type="MSArtboardGroup" transform="translate(-25.000000, -49.000000)">
            <g id="500px" sketch:type="MSLayerGroup" transform="translate(25.000000, 49.000000)">
                <g id="Oval-2">
                    <use fill="#FFFFFF" fill-rule="evenodd" sketch:type="MSShapeGroup" xlink:href="#path-1"></use>
                    <use fill="none" xlink:href="#path-1"></use>
                </g>
                <path d="M4.8663326,8.51490664 C5.14611784,8.2051624 5.48972175,7.9585563 5.89718226,7.77505046 C6.30433922,7.59188549 6.76249041,7.5 7.27163582,7.5 C7.69161723,7.5 8.07638834,7.56344113 8.42655624,7.68967952 C8.77642059,7.81625879 9.10097755,7.98374338 9.40015123,8.19239843 C9.69902136,8.40109135 9.97907221,8.64144803 10.2400382,8.91327908 C10.5007385,9.18537526 10.7584414,9.47288669 11.0131849,9.77641938 C11.2548004,9.4856128 11.5062428,9.20109351 11.7672088,8.92274791 C12.0279091,8.6447053 12.3079979,8.40109135 12.6071716,8.19239843 C12.9060417,7.98374338 13.2305987,7.81625879 13.5807666,7.68967952 C13.930631,7.56344113 14.3091416,7.5 14.7166021,7.5 C15.225444,7.5 15.6835952,7.58862821 16.0910177,7.76558163 C16.4981747,7.94283805 16.8417786,8.18618688 17.1218674,8.49593111 C17.4016527,8.80597835 17.6181884,9.16935401 17.7709434,9.58673986 C17.9236225,10.00405 18,10.4593111 18,10.9525612 C18,11.4457734 17.9236225,11.907587 17.7709434,12.3373959 C17.6181884,12.76747 17.4016527,13.1436475 17.1218674,13.4661178 C16.8417786,13.788626 16.4949117,14.0417088 16.0814943,14.2249117 C15.6677733,14.4083796 15.2063591,14.5 14.6975172,14.5 C14.3028812,14.5 13.9339319,14.4401191 13.5902901,14.3197514 C13.2466862,14.1997246 12.9251646,14.0417088 12.6262565,13.8455148 C12.3270828,13.6495858 12.0440345,13.4219552 11.7767702,13.162623 C11.5095059,12.9035559 11.2548004,12.6346792 11.0131849,12.3563714 C10.7459205,12.6346792 10.4849546,12.9035559 10.2305147,13.162623 C9.97580918,13.4219552 9.70554741,13.6495858 9.41923612,13.8455148 C9.13288688,14.0417088 8.82088877,14.1997246 8.48381091,14.3197514 C8.14646745,14.4401191 7.76795679,14.5 7.34797538,14.5 C6.82600553,14.5 6.36159389,14.4083796 5.95443693,14.2249117 C5.54701436,14.0417088 5.19711206,13.7951406 4.90450238,13.4850934 C4.63518916,13.200309 4.4255589,12.8644686 4.27481483,12.4779133 C4.27481483,12.4779133 4,11.8963001 4,11.0000189 C4,10.1036999 4.23873187,9.58189182 4.23873187,9.58189182 C4.38450552,9.17242191 4.59364253,8.81673493 4.8663326,8.51490664 Z M9.33333514,10.5068067 C9.12958592,10.3108399 8.91635116,10.1306292 8.69378264,9.96613677 C8.47098647,9.80190946 8.23862888,9.66586137 7.99701341,9.55825763 C7.75513235,9.45095689 7.51325129,9.39702246 7.27163582,9.39702246 C6.82600553,9.39702246 6.47284021,9.56477218 6.21213985,9.89970349 C5.9511739,10.2349757 5.82080475,10.6110774 5.82080475,11.0284633 C5.82080475,11.4837244 5.95443693,11.8569098 6.22170127,12.1477164 C6.48896562,12.4387502 6.85791486,12.584002 7.32889049,12.584002 C7.57050596,12.584002 7.81242496,12.5365821 8.05430602,12.4417045 C8.29592149,12.3469026 8.52497812,12.2268379 8.74151384,12.081321 C8.95778396,11.9360692 9.16153319,11.7715389 9.35242003,11.5880709 C9.54330687,11.4048681 9.71510883,11.2246952 9.86782589,11.0474388 C9.71510883,10.8832115 9.53674289,10.7030008 9.33333514,10.5068067 Z M15.795145,9.87125914 C15.5213546,9.55530335 15.1490665,9.39702246 14.6784323,9.39702246 C14.4236889,9.39702246 14.1788104,9.45095689 13.9434554,9.55825763 C13.7078348,9.66586137 13.4853421,9.80190946 13.2752945,9.96613677 C13.0653228,10.1306292 12.8649125,10.3108399 12.6740256,10.5068067 C12.4831388,10.7030008 12.3112989,10.8832115 12.1585818,11.0474388 C12.3238198,11.2371183 12.5021857,11.4238436 12.6931105,11.6070464 C12.8839974,11.7905144 13.0874051,11.9550447 13.3039408,12.1002586 C13.520173,12.2458134 13.7460046,12.362886 13.9816631,12.4512112 C14.2169802,12.5398394 14.4684227,12.584002 14.735687,12.584002 C15.2063591,12.584002 15.5690479,12.4322357 15.8237913,12.1287409 C16.0781933,11.8252082 16.205603,11.4522879 16.205603,11.0094878 C16.205603,10.5669148 16.0686698,10.1875558 15.795145,9.87125914 Z" fill="#0A0B09" sketch:type="MSShapeGroup"></path>
            </g>
        </g>
    </g>
</svg>