<?xml version="1.0" encoding="UTF-8" standalone="no"?>
<svg width="22px" height="22px" viewBox="0 0 22 22" version="1.1" xmlns="http://www.w3.org/2000/svg" xmlns:xlink="http://www.w3.org/1999/xlink" xmlns:sketch="http://www.bohemiancoding.com/sketch/ns">
    <!-- Generator: Sketch 3.3.3 (12081) - http://www.bohemiancoding.com/sketch -->
    <title>github</title>
    <desc>Created with Sketch.</desc>
    <defs>
        <circle id="path-1" cx="11" cy="11" r="11"></circle>
    </defs>
    <g id="Page-1" stroke="none" stroke-width="1" fill="none" fill-rule="evenodd" sketch:type="MSPage">
        <g id="assets" sketch:type="MSArtboardGroup" transform="translate(-73.000000, -49.000000)">
            <g id="github" sketch:type="MSLayerGroup" transform="translate(73.000000, 49.000000)">
                <g id="Oval-2">
                    <use fill="#FFFFFF" fill-rule="evenodd" sketch:type="MSShapeGroup" xlink:href="#path-1"></use>
                    <use fill="none" xlink:href="#path-1"></use>
                </g>
                <path d="M9.13917373,16.7750734 C9.13917373,16.6048697 9.13276311,16.1529038 9.12909989,15.5536633 C7.05434783,15.9875505 6.61659392,14.5906454 6.61659392,14.5906454 C6.27728885,13.7607921 5.78824996,13.53988 5.78824996,13.53988 C5.11101352,13.0945283 5.83953494,13.1033471 5.83953494,13.1033471 C6.58820402,13.1540555 6.98199938,13.8436892 6.98199938,13.8436892 C7.64733038,14.9411945 8.72797811,14.624157 9.15291078,14.4402841 C9.22068021,13.9764128 9.41345678,13.6598163 9.62638101,13.4803528 C7.97015099,13.2991255 6.22875128,12.6826882 6.22875128,9.93032662 C6.22875128,9.14633127 6.51951878,8.50476028 6.99665223,8.00296799 C6.92018267,7.82129977 6.66421568,7.09109939 7.06991648,6.10206589 C7.06991648,6.10206589 7.69632585,5.90893318 9.12085767,6.83843947 C9.71612972,6.67881837 10.3539866,6.59944876 10.9881803,6.59636217 C11.6219161,6.59944876 12.259773,6.67881837 12.855503,6.83843947 C14.2795769,5.90893318 14.9050704,6.10206589 14.9050704,6.10206589 C15.311687,7.09109939 15.0557201,7.82129977 14.9792505,8.00296799 C15.4572997,8.50476028 15.7457777,9.14633127 15.7457777,9.93032662 C15.7457777,12.6897433 14.0020885,13.2969208 12.3403637,13.4746205 C12.6077782,13.6964145 12.8463449,14.1347111 12.8463449,14.8049433 C12.8463449,15.7648746 12.8376448,16.5396102 12.8376448,16.7750734 C12.8376448,16.9673242 9.13917373,16.9655604 9.13917373,16.7750734 Z" id="Imported-Layers" fill="#000000" sketch:type="MSShapeGroup"></path>
            </g>
        </g>
    </g>
</svg>