<?xml version="1.0" encoding="UTF-8" standalone="no"?>
<svg width="22px" height="22px" viewBox="0 0 22 22" version="1.1" xmlns="http://www.w3.org/2000/svg" xmlns:xlink="http://www.w3.org/1999/xlink" xmlns:sketch="http://www.bohemiancoding.com/sketch/ns">
    <!-- Generator: Sketch 3.3.3 (12081) - http://www.bohemiancoding.com/sketch -->
    <title>twitter</title>
    <desc>Created with Sketch.</desc>
    <defs>
        <circle id="path-1" cx="11" cy="11" r="11"></circle>
        <path id="path-2" d="M16.7019937,8.26306697 C16.3089655,8.4382922 15.8865941,8.55671948 15.4432798,8.60998229 C15.895776,8.33730496 16.2432459,7.90554621 16.4068807,7.39110441 C15.9834543,7.64355287 15.5144305,7.82690893 15.0152428,7.92573581 C14.6154551,7.49755148 14.0458983,7.22998047 13.4155841,7.22998047 C12.2052417,7.22998047 11.2239801,8.21640308 11.2239801,9.43308132 C11.2239801,9.60575339 11.243399,9.77390834 11.2807521,9.93515012 C9.45935813,9.8432757 7.84453933,8.96616754 6.76364341,7.63326168 C6.57500238,7.95865191 6.46692842,8.33710856 6.46692842,8.74086112 C6.46692842,9.50519823 6.85386134,10.1795463 7.44189935,10.5746181 C7.08262961,10.5631878 6.74473242,10.464086 6.44922867,10.2990734 C6.44907238,10.3082648 6.44907238,10.3174954 6.44907238,10.3267654 C6.44907238,11.3942213 7.2044961,12.2846844 8.20705206,12.4870517 C8.02313878,12.5374078 7.82953557,12.5643142 7.62964172,12.5643142 C7.48843445,12.5643142 7.35113441,12.5505272 7.21735088,12.5247992 C7.49620984,13.4001005 8.30555332,14.0370546 9.26454368,14.0548482 C8.51451194,14.6457276 7.56954853,14.9979456 6.54280681,14.9979456 C6.36592654,14.9979456 6.19146875,14.9875366 6.02001953,14.9671899 C6.98987199,15.5922817 8.14184041,15.9569905 9.37945529,15.9569905 C13.4104656,15.9569905 15.6147681,12.5999013 15.6147681,9.68855429 C15.6147681,9.59302688 15.6126582,9.4980101 15.6084384,9.40354324 C16.0365926,9.09292205 16.4081701,8.70488123 16.7019937,8.26306697"></path>
    </defs>
    <g id="Page-1" stroke="none" stroke-width="1" fill="none" fill-rule="evenodd" sketch:type="MSPage">
        <g id="assets" sketch:type="MSArtboardGroup" transform="translate(-49.000000, -49.000000)">
            <g id="twitter" sketch:type="MSLayerGroup" transform="translate(49.000000, 49.000000)">
                <g id="Oval-2">
                    <use fill="#FFFFFF" fill-rule="evenodd" sketch:type="MSShapeGroup" xlink:href="#path-1"></use>
                    <use fill="none" xlink:href="#path-1"></use>
                </g>
                <g id="Fill-1">
                    <use sketch:type="MSShapeGroup" xlink:href="#path-2"></use>
                    <use xlink:href="#path-2"></use>
                </g>
            </g>
        </g>
    </g>
</svg>